<svg width="240" height="238" viewBox="0 0 240 238" fill="none" xmlns="http://www.w3.org/2000/svg">
<g style="mix-blend-mode:overlay">
<path d="M107.832 220.446C108.104 218.466 107.213 217.61 105.467 217.37L103.991 217.167L103.801 218.553L105.007 218.718C106.015 218.857 106.327 219.249 106.194 220.221L105.394 226.034L102.82 225.68L102.635 227.03L105.209 227.384L104.867 229.868L106.505 230.094L106.846 227.61L108.124 227.785L108.31 226.435L107.032 226.26L107.832 220.446Z" fill="white"/>
<path d="M89.6714 219.006C88.8991 222.053 90.5436 224.513 93.2911 225.209C96.0209 225.901 98.6562 224.526 99.4285 221.479C100.205 218.415 98.6182 215.951 95.8883 215.259C93.1408 214.562 90.4482 215.941 89.6714 219.006ZM97.7906 221.064C97.1745 223.495 95.3521 224.251 93.6613 223.822C92.0058 223.403 90.6933 221.852 91.3093 219.421C91.9299 216.973 93.858 216.243 95.5311 216.668C97.2043 217.092 98.4112 218.616 97.7906 221.064Z" fill="white"/>
<path d="M85.5664 217.668C86.7356 214.809 85.6261 212.098 83.154 211.087C81.4722 210.399 79.9275 210.769 78.953 211.568L79.6613 209.835L78.1141 209.203L73.025 221.648L74.5722 222.28L76.5666 217.403C76.7724 218.724 77.7983 220.007 79.2446 220.599C81.7336 221.617 84.3904 220.544 85.5664 217.668ZM77.7701 214.46C78.6573 212.291 80.6193 211.621 82.3011 212.309C83.9828 212.996 84.8896 214.859 84.0024 217.028C83.1153 219.198 81.1838 219.841 79.502 219.153C77.8203 218.466 76.8967 216.596 77.7701 214.46Z" fill="white"/>
<path d="M63.3232 206.673C61.7392 209.388 62.6402 212.207 65.0884 213.635C67.5209 215.054 70.4335 214.461 72.0174 211.746C73.6105 209.015 72.7658 206.208 70.3333 204.789C67.8851 203.361 64.9163 203.943 63.3232 206.673ZM70.5579 210.894C69.2944 213.06 67.334 213.283 65.8274 212.404C64.3522 211.544 63.5192 209.69 64.7827 207.525C66.0553 205.343 68.1099 205.175 69.6008 206.045C71.0917 206.914 71.8306 208.713 70.5579 210.894Z" fill="white"/>
<path d="M55.1488 197.739C53.0376 200.608 58.4059 203.104 56.9674 204.977C56.4805 205.611 55.55 205.63 54.5844 204.888C53.5324 204.081 53.3698 203.039 53.9208 202.203L52.6094 201.196C51.5118 202.804 51.9454 204.626 53.6892 205.965C55.4473 207.315 57.3493 207.195 58.2788 205.984C60.5361 203.044 55.0813 200.482 56.4313 198.724C56.9293 198.076 57.9041 198 58.9416 198.796C60.0513 199.648 60.286 200.745 59.7716 201.564L61.1262 202.604C62.1463 201.097 61.6239 199.092 59.7793 197.676C58.0356 196.337 56.1447 196.442 55.1488 197.739Z" fill="white"/>
<path d="M45.1018 191.543C47.4721 189.451 47.6361 186.616 45.7606 184.491C44.1256 182.638 42.0203 182.34 40.1987 183.269L41.3769 184.604C42.5574 184.047 43.7379 184.313 44.7117 185.417C45.9139 186.779 45.8364 188.641 43.9837 190.276C42.1582 191.887 40.3013 191.732 39.0991 190.37C38.1253 189.267 38.0362 188.012 38.7069 186.96L37.5287 185.625C36.2987 187.389 36.4151 189.443 38.0502 191.296C39.9257 193.421 42.7586 193.611 45.1018 191.543Z" fill="white"/>
<path d="M30.7869 172.86C28.173 174.606 27.747 177.534 29.3211 179.891C30.8852 182.233 33.7632 182.976 36.3771 181.231C39.0062 179.475 39.4775 176.582 37.9135 174.24C36.3393 171.883 33.416 171.104 30.7869 172.86ZM35.4387 179.825C33.3536 181.218 31.4936 180.559 30.5249 179.109C29.5764 177.689 29.6402 175.658 31.7253 174.265C33.8256 172.863 35.7461 173.612 36.7047 175.047C37.6633 176.483 37.5389 178.423 35.4387 179.825Z" fill="white"/>
<path d="M29.7858 159.977L29.0706 158.506L23.793 161.073C21.2278 162.321 20.7241 164.525 21.7333 166.6C22.3213 167.81 23.3523 168.642 24.5697 168.777L23.2952 169.397L24.0183 170.884L32.9723 166.529L32.2492 165.042L27.2983 167.45C25.3703 168.388 23.9141 167.803 23.175 166.283C22.444 164.78 22.8906 163.33 24.7206 162.44L29.7858 159.977Z" fill="white"/>
<path d="M24.7445 154.764C26.6279 154.095 26.9786 152.911 26.389 151.25L25.8907 149.846L24.5722 150.314L24.9794 151.461C25.3198 152.42 25.116 152.878 24.1914 153.206L18.6608 155.169L17.7917 152.72L16.5076 153.176L17.3767 155.625L15.0138 156.463L15.5668 158.022L17.9297 157.183L18.3612 158.399L19.6454 157.943L19.2139 156.727L24.7445 154.764Z" fill="white"/>
<path d="M19.1189 145.835C16.8855 146.415 15.8982 145.432 15.5009 143.902L15.3913 143.48L13.7382 143.91C14.1355 145.44 15.0732 146.304 16.2876 146.57L14.7224 146.977L15.138 148.577L24.775 146.074L24.3594 144.474L19.1189 145.835Z" fill="white"/>
<path d="M17.8065 138.774C20.8656 138.347 22.6511 136.025 22.2842 133.397C22.0304 131.58 20.9163 130.433 19.7717 129.987L21.6072 129.731L21.376 128.076L11.515 129.453L11.7462 131.108L13.5456 130.857C12.6003 131.576 11.8405 132.966 12.0968 134.802C12.4661 137.447 14.7295 139.204 17.8065 138.774ZM16.6587 130.422C18.98 130.098 20.5457 131.457 20.7969 133.257C21.0482 135.056 19.8942 136.776 17.5729 137.101C15.2516 137.425 13.7244 136.079 13.4731 134.279C13.2219 132.48 14.3734 130.741 16.6587 130.422Z" fill="white"/>
<path d="M16.7257 106.946C13.59 106.729 11.4621 108.785 11.2659 111.612C11.0709 114.422 12.8932 116.77 16.0289 116.988C19.1827 117.207 21.3249 115.206 21.5199 112.397C21.7161 109.569 19.8795 107.165 16.7257 106.946ZM16.1458 115.302C13.6445 115.129 12.5758 113.47 12.6965 111.73C12.8148 110.026 14.1074 108.458 16.6087 108.632C19.1282 108.807 20.1894 110.574 20.0699 112.296C19.9504 114.018 18.6653 115.477 16.1458 115.302Z" fill="white"/>
<path d="M18.7524 95.6211C21.7979 96.4694 24.2643 95.0628 25.0248 92.3323C25.6877 89.9519 24.7914 88.0236 23.02 87.0022L22.5423 88.7175C23.6525 89.4039 24.0719 90.5392 23.677 91.9569C23.1896 93.7072 21.5861 94.6563 19.2057 93.9934C16.8603 93.3401 15.9783 91.6988 16.4658 89.9485C16.8607 88.5308 17.8639 87.7729 19.1117 87.762L19.5895 86.0467C17.4401 85.9762 15.7811 87.1928 15.1181 89.5732C14.3576 92.3036 15.7419 94.7827 18.7524 95.6211Z" fill="white"/>
<path d="M26.6216 73.4395C23.7337 72.1984 21.0462 73.4363 19.927 76.0403C18.8151 78.6277 19.7594 81.4462 22.6473 82.6873C25.5518 83.9356 28.2346 82.755 29.3465 80.1676C30.4656 77.5635 29.5262 74.6877 26.6216 73.4395ZM23.3144 81.1349C21.0108 80.1449 20.5499 78.2263 21.2386 76.6238C21.9129 75.0546 23.6508 74.0019 25.9544 74.9919C28.2747 75.9891 28.6926 78.0078 28.0111 79.5936C27.3296 81.1795 25.6347 82.1321 23.3144 81.1349Z" fill="white"/>
<path d="M29.2711 67.7941C27.2657 66.6527 27.2431 65.26 28.0251 63.8862L28.2408 63.5072L26.7565 62.6624C25.9745 64.0361 26.0443 65.3093 26.7289 66.3471L25.3235 65.5471L24.5056 66.9841L33.1587 71.9094L33.9766 70.4725L29.2711 67.7941Z" fill="white"/>
<path d="M39.0955 53.8516C36.5539 52.0022 33.659 52.6147 31.9913 54.9065C30.3343 57.1837 30.6315 60.1413 33.1731 61.9907C35.7294 63.8508 38.6069 63.2931 40.2639 61.0159C41.9316 58.7241 41.6518 55.7117 39.0955 53.8516ZM34.1673 60.6244C32.1399 59.1491 32.115 57.1761 33.1412 55.7657C34.1461 54.3847 36.0739 53.7427 38.1013 55.2179C40.1434 56.7039 40.1041 58.765 39.0886 60.1607C38.073 61.5564 36.2094 62.1103 34.1673 60.6244Z" fill="white"/>
<path d="M50.8384 48.459L51.9711 47.2796L47.7384 43.2145C45.681 41.2386 43.4381 41.5281 41.8397 43.1923C40.9084 44.1621 40.484 45.4171 40.7779 46.6062L39.7557 45.6246L38.6105 46.8171L45.7917 53.7139L46.9369 52.5214L42.9663 48.708C41.42 47.2229 41.4654 45.6543 42.6358 44.4356C43.7937 43.23 45.3084 43.148 46.776 44.5575L50.8384 48.459Z" fill="white"/>
<path d="M51.9243 40.5313C53.8319 42.9606 56.7371 43.336 58.8234 41.6978C60.2668 40.5645 60.6979 39.0247 60.5074 37.8113L61.6519 39.2689L62.9666 38.2366L56.8176 30.4056L55.5029 31.4379L56.625 32.8669C55.5281 32.4114 53.9443 32.4538 52.4867 33.5983C50.3861 35.2478 50.0056 38.0877 51.9243 40.5313ZM58.5662 35.3391C60.0137 37.1825 59.6263 39.2193 58.1973 40.3414C56.7683 41.4635 54.7008 41.3312 53.2533 39.4877C51.8058 37.6443 52.2014 35.6473 53.6304 34.5253C55.0594 33.4032 57.1412 33.5242 58.5662 35.3391Z" fill="white"/>
<path d="M60.9415 27.6287L69.3671 34.217L71.0256 33.2379L69.3279 22.6779L67.8102 23.5738L69.4361 32.4039L62.4749 26.7235L60.9415 27.6287Z" fill="white"/>
<path d="M77.4325 29.8843L78.928 29.1791L74.6815 20.1734L73.186 20.8786L77.4325 29.8843ZM71.191 19.6298L71.7179 20.7472L74.3349 17.2232L73.7227 15.925L71.191 19.6298Z" fill="white"/>
<path d="M82.7212 21.7147C81.8976 19.5592 82.7649 18.4692 84.2415 17.905L84.6488 17.7494L84.0392 16.154C82.5626 16.7182 81.8077 17.7457 81.6771 18.9821L81.1 17.4716L79.5555 18.0617L83.1093 27.3626L84.6538 26.7724L82.7212 21.7147Z" fill="white"/>
<path d="M97.3242 12.5411L95.7236 12.9556L97.0946 18.2498C97.6321 20.3253 96.7882 21.6324 95.1348 22.0606C93.5167 22.4797 92.1841 21.755 91.6785 19.8026L90.271 14.3676L88.688 14.7776L90.1502 20.4236C90.8653 23.1851 92.9619 24.1061 95.1781 23.5321C96.4621 23.1996 97.4948 22.3316 97.8508 21.1696L98.2197 22.5943L99.8203 22.1798L97.3242 12.5411Z" fill="white"/>
<path d="M111.261 17.7719C110.739 14.2485 105.17 16.2582 104.872 13.9152C104.771 13.1222 105.418 12.4536 106.626 12.2997C107.942 12.1321 108.79 12.7566 108.989 13.7388L110.629 13.5298C110.275 11.6151 108.684 10.6272 106.503 10.905C104.304 11.1851 103.039 12.6101 103.232 14.1241C103.7 17.8009 109.377 15.7774 109.657 17.9762C109.76 18.7873 109.122 19.528 107.824 19.6933C106.436 19.8701 105.497 19.257 105.286 18.3133L103.591 18.5291C103.929 20.3177 105.712 21.3727 108.019 21.0788C110.2 20.801 111.467 19.394 111.261 17.7719Z" fill="white"/>
<path d="M130.173 17.9004C129.951 19.8866 130.863 20.7201 132.614 20.9163L134.095 21.0822L134.251 19.6919L133.041 19.5564C132.03 19.4431 131.707 19.0595 131.816 18.0845L132.47 12.2524L135.052 12.5417L135.204 11.1874L132.622 10.8982L132.901 8.40641L131.258 8.22232L130.979 10.7141L129.697 10.5704L129.545 11.9246L130.827 12.0683L130.173 17.9004Z" fill="white"/>
<path d="M148.364 18.8839C149.06 15.8186 147.354 13.4007 144.59 12.7735C141.844 12.1503 139.244 13.5911 138.548 16.6564C137.848 19.7394 139.497 22.1629 142.243 22.7862C145.007 23.4134 147.664 21.967 148.364 18.8839ZM140.196 17.0303C140.751 14.5851 142.554 13.7832 144.255 14.1692C145.92 14.5472 147.271 16.0648 146.716 18.51C146.157 20.9729 144.248 21.7506 142.565 21.3687C140.882 20.9867 139.637 19.4932 140.196 17.0303Z" fill="white"/>
<path d="M152.501 20.1184C151.404 23.0058 152.582 25.6882 155.078 26.6368C156.777 27.2821 158.312 26.8741 159.266 26.051L158.601 27.8004L160.164 28.394L164.939 15.8254L163.376 15.2318L161.505 20.1573C161.266 18.8421 160.208 17.585 158.748 17.03C156.234 16.075 153.605 17.2141 152.501 20.1184ZM160.376 23.1296C159.543 25.3206 157.599 26.0395 155.9 25.3942C154.202 24.7489 153.248 22.9096 154.081 20.7186C154.913 18.5276 156.828 17.8362 158.527 18.4815C160.225 19.1268 161.195 20.9726 160.376 23.1296Z" fill="white"/>
<path d="M175.014 30.5515C176.529 27.7976 175.557 25.0026 173.074 23.6362C170.607 22.2786 167.71 22.9451 166.195 25.699C164.671 28.4688 165.586 31.2534 168.053 32.611C170.536 33.9774 173.49 33.3213 175.014 30.5515ZM167.675 26.5136C168.884 24.3168 170.838 24.0442 172.366 24.885C173.863 25.7084 174.742 27.5401 173.533 29.7369C172.316 31.9495 170.266 32.1697 168.754 31.3376C167.241 30.5055 166.458 28.7263 167.675 26.5136Z" fill="white"/>
<path d="M183.41 39.2774C185.448 36.3565 180.019 33.9964 181.41 32.0875C181.881 31.4414 182.811 31.3995 183.794 32.1164C184.866 32.8975 185.055 33.9343 184.525 34.7847L185.862 35.7584C186.918 34.123 186.439 32.3126 184.662 31.0178C182.871 29.7124 180.973 29.8803 180.074 31.1137C177.891 34.1093 183.408 36.5336 182.103 38.3251C181.621 38.9858 180.649 39.0865 179.591 38.316C178.461 37.4921 178.199 36.4018 178.692 35.5701L177.312 34.5643C176.33 36.0969 176.903 38.0878 178.782 39.4574C180.559 40.7521 182.447 40.5989 183.41 39.2774Z" fill="white"/>
<path d="M193.609 45.22C191.292 47.3707 191.199 50.2085 193.127 52.2859C194.808 54.097 196.921 54.3428 198.718 53.3683L197.507 52.0633C196.341 52.6499 195.154 52.4128 194.153 51.3342C192.917 50.0025 192.948 48.1395 194.759 46.4584C196.543 44.8021 198.403 44.9099 199.639 46.2416C200.64 47.3203 200.761 48.5718 200.117 49.6406L201.328 50.9457C202.514 49.1513 202.346 47.1009 200.665 45.2898C198.736 43.2124 195.9 43.094 193.609 45.22Z" fill="white"/>
<path d="M208.388 63.5374C210.958 61.7266 211.31 58.7887 209.677 56.4719C208.055 54.1699 205.159 53.4989 202.59 55.3097C200.006 57.1309 199.607 60.0347 201.229 62.3367C202.862 64.6535 205.804 65.3586 208.388 63.5374ZM203.563 56.6909C205.613 55.2464 207.489 55.8582 208.493 57.2839C209.477 58.68 209.464 60.7118 207.415 62.1562C205.351 63.6111 203.412 62.9102 202.418 61.4993C201.423 60.0884 201.499 58.1457 203.563 56.6909Z" fill="white"/>
<path d="M209.712 76.3913L210.464 77.8434L215.676 75.1451C218.209 73.8336 218.657 71.6169 217.596 69.5678C216.978 68.3738 215.926 67.5679 214.706 67.4632L215.965 66.8116L215.204 65.3433L206.363 69.9213L207.123 71.3896L212.012 68.8583C213.915 67.8725 215.386 68.4206 216.163 69.9212C216.931 71.4056 216.521 72.866 214.714 73.8016L209.712 76.3913Z" fill="white"/>
<path d="M214.883 81.4762C213.017 82.1918 212.696 83.385 213.327 85.0306L213.861 86.4217L215.167 85.9208L214.731 84.7841C214.367 83.8341 214.559 83.3712 215.475 83.0199L220.955 80.9187L221.885 83.3446L223.157 82.8567L222.227 80.4307L224.568 79.533L223.976 77.9892L221.635 78.887L221.173 77.6825L219.901 78.1704L220.363 79.3749L214.883 81.4762Z" fill="white"/>
<path d="M220.731 90.2611C222.949 89.6253 223.961 90.5827 224.396 92.1022L224.517 92.5214L226.158 92.0507C225.723 90.5312 224.764 89.691 223.543 89.455L225.097 89.0094L224.642 87.42L215.071 90.1639L215.526 91.7532L220.731 90.2611Z" fill="white"/>
<path d="M222.22 97.2867C219.173 97.7905 217.446 100.157 217.879 102.774C218.178 104.585 219.321 105.703 220.476 106.12L218.648 106.422L218.92 108.071L228.744 106.447L228.471 104.798L226.679 105.095C227.605 104.352 228.33 102.943 228.028 101.115C227.592 98.4796 225.286 96.78 222.22 97.2867ZM223.577 105.607C221.265 105.99 219.666 104.67 219.369 102.878C219.073 101.085 220.183 99.3361 222.496 98.9538C224.808 98.5716 226.369 99.8789 226.665 101.671C226.961 103.464 225.854 105.231 223.577 105.607Z" fill="white"/>
<path d="M224.1 129.077C227.24 129.216 229.315 127.107 229.441 124.276C229.565 121.462 227.684 119.16 224.544 119.022C221.386 118.882 219.294 120.936 219.17 123.749C219.045 126.581 220.941 128.938 224.1 129.077ZM224.469 120.71C226.974 120.82 228.084 122.452 228.007 124.194C227.932 125.9 226.679 127.5 224.174 127.389C221.651 127.278 220.546 125.538 220.622 123.813C220.698 122.089 221.946 120.598 224.469 120.71Z" fill="white"/>
<path d="M222.358 140.45C219.292 139.678 216.862 141.146 216.17 143.895C215.567 146.291 216.511 148.197 218.308 149.173L218.742 147.446C217.615 146.788 217.168 145.664 217.527 144.237C217.97 142.475 219.549 141.486 221.945 142.089C224.307 142.683 225.229 144.301 224.786 146.063C224.427 147.491 223.443 148.273 222.196 148.316L221.761 150.042C223.912 150.059 225.54 148.801 226.143 146.405C226.834 143.656 225.388 141.213 222.358 140.45Z" fill="white"/>
<path d="M215.048 162.822C217.966 163.99 220.622 162.685 221.675 160.054C222.722 157.44 221.707 154.646 218.789 153.477C215.854 152.302 213.202 153.55 212.155 156.165C211.101 158.796 212.113 161.647 215.048 162.822ZM218.161 155.046C220.489 155.978 220.997 157.884 220.349 159.504C219.714 161.089 218.004 162.185 215.676 161.253C213.331 160.315 212.863 158.307 213.504 156.705C214.146 155.102 215.816 154.107 218.161 155.046Z" fill="white"/>
<path d="M212.541 168.532C214.574 169.623 214.632 171.015 213.884 172.408L213.678 172.792L215.183 173.599C215.931 172.206 215.829 170.935 215.118 169.915L216.543 170.679L217.325 169.222L208.551 164.516L207.769 165.973L212.541 168.532Z" fill="white"/>
<path d="M203.069 182.717C205.657 184.502 208.535 183.817 210.145 181.484C211.744 179.166 211.373 176.217 208.786 174.432C206.183 172.636 203.321 173.266 201.722 175.584C200.112 177.917 200.467 180.922 203.069 182.717ZM207.826 175.823C209.89 177.246 209.964 179.218 208.974 180.654C208.004 182.06 206.093 182.75 204.029 181.326C201.95 179.892 201.938 177.83 202.918 176.41C203.898 174.989 205.747 174.388 207.826 175.823Z" fill="white"/>
<path d="M191.466 188.402L190.363 189.61L194.696 193.567C196.803 195.491 199.038 195.145 200.594 193.442C201.5 192.449 201.893 191.184 201.569 190.002L202.616 190.958L203.731 189.737L196.379 183.023L195.264 184.243L199.329 187.956C200.912 189.402 200.906 190.971 199.767 192.219C198.639 193.453 197.127 193.573 195.625 192.201L191.466 188.402Z" fill="white"/>
<path d="M190.579 196.355C188.611 193.974 185.697 193.672 183.653 195.362C182.238 196.531 181.846 198.081 182.067 199.29L180.886 197.861L179.598 198.926L185.941 206.6L187.23 205.535L186.072 204.135C187.18 204.563 188.762 204.481 190.191 203.3C192.249 201.598 192.558 198.75 190.579 196.355ZM184.069 201.712C182.576 199.906 182.912 197.86 184.313 196.702C185.713 195.545 187.783 195.625 189.277 197.432C190.77 199.238 190.425 201.244 189.024 202.402C187.624 203.56 185.54 203.491 184.069 201.712Z" fill="white"/>
<path d="M181.888 209.48L173.3 203.105L171.667 204.126L173.629 214.64L175.124 213.706L173.277 204.919L180.378 210.423L181.888 209.48Z" fill="white"/>
<path d="M165.346 207.639L163.869 208.381L168.34 217.278L169.817 216.535L165.346 207.639ZM171.843 217.734L171.288 216.63L168.761 220.218L169.405 221.501L171.843 217.734Z" fill="white"/>
<path d="M160.264 215.939C161.142 218.073 160.302 219.184 158.84 219.785L158.437 219.951L159.086 221.531C160.548 220.93 161.277 219.883 161.377 218.644L161.991 220.14L163.521 219.511L159.734 210.302L158.205 210.931L160.264 215.939Z" fill="white"/>
<path d="M145.896 225.476L147.486 225.021L145.982 219.763C145.393 217.702 146.204 216.374 147.846 215.904C149.453 215.445 150.803 216.136 151.358 218.075L152.901 223.473L154.473 223.023L152.87 217.416C152.086 214.673 149.967 213.805 147.766 214.434C146.49 214.799 145.48 215.693 145.153 216.863L144.748 215.448L143.159 215.903L145.896 225.476Z" fill="white"/>
<path d="M131.832 220.597C132.443 224.106 137.959 221.957 138.316 224.292C138.437 225.082 137.807 225.767 136.603 225.951C135.292 226.151 134.428 225.548 134.205 224.571L132.571 224.821C132.972 226.727 134.588 227.674 136.761 227.342C138.952 227.007 140.181 225.55 139.951 224.042C139.39 220.378 133.766 222.543 133.431 220.352C133.307 219.544 133.927 218.787 135.22 218.59C136.603 218.378 137.557 218.967 137.792 219.905L139.48 219.647C139.098 217.868 137.289 216.858 134.99 217.209C132.817 217.542 131.585 218.98 131.832 220.597Z" fill="white"/>
</g>
<g style="mix-blend-mode:overlay" opacity="0.7">
<path d="M155.333 118.363L150.641 118.357L150.641 118.37L155.333 118.363ZM145.092 143.092L141.778 139.77L141.77 139.778L145.092 143.092ZM145.092 93.6344L141.775 96.9536L141.778 96.9565L145.092 93.6344ZM120.363 153.333L120.37 148.641L120.357 148.641L120.363 153.333ZM95.6344 143.092L98.9565 139.778L98.9536 139.775L95.6344 143.092ZM130.355 73.0983H135.047V63.7138H130.355V73.0983ZM110.372 63.7138H105.679V73.0983H110.372V63.7138ZM130.355 173.012H135.047V163.628H130.355V173.012ZM110.372 163.628H105.679V173.012H110.372V163.628ZM175.012 108.372V103.679H165.628V108.372H175.012ZM165.628 128.355V133.047H175.012V128.355H165.628ZM75.0983 108.372V103.679H65.7138V108.372H75.0983ZM65.7138 128.355V133.047H75.0983V128.355H65.7138ZM153.655 70.0838L150.337 66.7659L143.701 73.4018L147.019 76.7197L153.655 70.0838ZM162.007 91.7068L165.324 95.0248L171.96 88.3889L168.642 85.071L162.007 91.7068ZM93.7068 76.7197L97.0247 73.4018L90.3889 66.7659L87.0709 70.0838L93.7068 76.7197ZM72.0838 85.071L68.7659 88.3889L75.4017 95.0248L78.7197 91.7068L72.0838 85.071ZM92.0666 96.7025C93.8991 98.535 96.8701 98.535 98.7025 96.7025C100.535 94.8701 100.535 91.8991 98.7025 90.0667L92.0666 96.7025ZM87.0709 166.642L90.3889 169.96L97.0247 163.325L93.7068 160.007L87.0709 166.642ZM78.7197 145.019L75.4017 141.701L68.7659 148.337L72.0838 151.655L78.7197 145.019ZM147.019 160.007L143.701 163.325L150.337 169.96L153.655 166.642L147.019 160.007ZM168.642 151.655L171.96 148.337L165.324 141.701L162.007 145.019L168.642 151.655ZM155.333 123.055H170.32V113.671H155.333V123.055ZM150.641 118.37C150.646 122.345 149.866 126.282 148.345 129.954L157.016 133.545C159.01 128.73 160.033 123.568 160.025 118.357L150.641 118.37ZM148.345 129.954C146.824 133.627 144.592 136.963 141.778 139.77L148.406 146.414C152.095 142.733 155.021 138.36 157.016 133.545L148.345 129.954ZM160.025 118.37C160.033 113.158 159.01 107.996 157.016 103.181L148.345 106.772C149.866 110.445 150.646 114.382 150.641 118.357L160.025 118.37ZM157.016 103.181C155.021 98.3663 152.095 93.9928 148.406 90.3123L141.778 96.9565C144.592 99.7637 146.824 103.1 148.345 106.772L157.016 103.181ZM115.671 153.333V168.32H125.055V153.333H115.671ZM120.357 158.025C125.568 158.033 130.73 157.01 135.545 155.016L131.954 146.345C128.282 147.866 124.345 148.646 120.37 148.641L120.357 158.025ZM135.545 155.016C140.36 153.021 144.733 150.095 148.414 146.406L141.77 139.778C138.963 142.592 135.627 144.824 131.954 146.345L135.545 155.016ZM120.357 148.641C116.382 148.646 112.445 147.866 108.772 146.345L105.181 155.016C109.996 157.01 115.158 158.033 120.37 158.025L120.357 148.641ZM108.772 146.345C105.099 144.824 101.764 142.592 98.9565 139.778L92.3123 146.406C95.9928 150.095 100.366 153.021 105.181 155.016L108.772 146.345ZM90.0854 118.363C90.0854 110.333 93.2754 102.632 98.9536 96.9536L92.3177 90.3177C84.8796 97.7558 80.7009 107.844 80.7009 118.363H90.0854ZM98.9536 96.9536C104.632 91.2754 112.333 88.0855 120.363 88.0855V78.7009C109.844 78.7009 99.7558 82.8796 92.3177 90.3177L98.9536 96.9536ZM85.3932 113.671H70.406V123.055H85.3932V113.671ZM80.7009 118.363C80.7009 129.315 85.1484 139.236 92.3151 146.409L98.9536 139.775C93.4712 134.289 90.0854 126.725 90.0854 118.363H80.7009ZM125.055 83.3932V68.4061H115.671V83.3932H125.055ZM120.363 88.0855C128.725 88.0855 136.288 91.4712 141.775 96.9536L148.408 90.3151C141.236 83.1484 131.315 78.7009 120.363 78.7009V88.0855ZM120.363 73.0983H130.355V63.7138H120.363V73.0983ZM120.363 63.7138H110.372V73.0983H120.363V63.7138ZM120.363 173.012H130.355V163.628H120.363V173.012ZM120.363 163.628H110.372V173.012H120.363V163.628ZM175.012 118.363V108.372H165.628V118.363H175.012ZM165.628 118.363V128.355H175.012V118.363H165.628ZM75.0983 118.363V108.372H65.7138V118.363H75.0983ZM65.7138 118.363V128.355H75.0983V118.363H65.7138ZM161.149 77.5774L153.655 70.0838L147.019 76.7197L154.513 84.2133L161.149 77.5774ZM154.513 84.2133L162.007 91.7068L168.642 85.071L161.149 77.5774L154.513 84.2133ZM154.513 77.5774L141.774 90.3164L148.41 96.9523L161.149 84.2133L154.513 77.5774ZM86.2132 84.2133L93.7068 76.7197L87.0709 70.0838L79.5774 77.5774L86.2132 84.2133ZM79.5774 77.5774L72.0838 85.071L78.7197 91.7068L86.2132 84.2133L79.5774 77.5774ZM79.5774 84.2133L92.0666 96.7025L98.7025 90.0667L86.2132 77.5774L79.5774 84.2133ZM79.5774 159.149L87.0709 166.642L93.7068 160.007L86.2132 152.513L79.5774 159.149ZM86.2132 152.513L78.7197 145.019L72.0838 151.655L79.5774 159.149L86.2132 152.513ZM86.2132 159.149L98.9523 146.41L92.3164 139.774L79.5774 152.513L86.2132 159.149ZM154.513 152.513L147.019 160.007L153.655 166.642L161.149 159.149L154.513 152.513ZM161.149 159.149L168.642 151.655L162.007 145.019L154.513 152.513L161.149 159.149ZM161.149 152.513L148.41 139.774L141.774 146.41L154.513 159.149L161.149 152.513Z" fill="white"/>
<path d="M112.87 118.363C117.008 118.363 120.363 115.008 120.363 110.87C120.363 106.731 117.008 103.376 112.87 103.376C108.731 103.376 105.376 106.731 105.376 110.87C105.376 115.008 108.731 118.363 112.87 118.363Z" stroke="white" stroke-width="9.38455" stroke-linecap="round" stroke-linejoin="round"/>
<path d="M129.508 133.604C131.004 133.604 132.217 132.391 132.217 130.895C132.217 129.398 131.004 128.185 129.508 128.185C128.011 128.185 126.798 129.398 126.798 130.895C126.798 132.391 128.011 133.604 129.508 133.604Z" stroke="white" stroke-width="9.38455" stroke-linecap="round" stroke-linejoin="round"/>
</g>
</svg>
