<svg width="26" height="26" viewBox="0 0 26 26" fill="none" xmlns="http://www.w3.org/2000/svg">
<path d="M12.5702 17.3584C14.7213 17.3584 16.4651 15.6146 16.4651 13.4636C16.4651 11.3125 14.7213 9.5687 12.5702 9.5687C10.4191 9.5687 8.67535 11.3125 8.67535 13.4636C8.67535 15.6146 10.4191 17.3584 12.5702 17.3584Z" stroke="#3CEAF5" stroke-width="1.55795" stroke-linecap="round" stroke-linejoin="round"/>
<path d="M7.31153 7.67902C3.33831 9.6851 1.66333 13.4636 1.66333 13.4636C1.66333 13.4636 4.77958 20.4751 12.5702 20.4751C14.3957 20.49 16.1985 20.0694 17.8289 19.2481" stroke="#3685D9" stroke-width="1.50359" stroke-linecap="round" stroke-linejoin="round"/>
<path d="M20.4193 17.466C22.5422 15.567 23.4771 13.4636 23.4771 13.4636C23.4771 13.4636 20.3608 6.452 12.5702 6.452C11.8948 6.45067 11.2205 6.50605 10.5544 6.61755" stroke="#3685D9" stroke-width="1.50359" stroke-linecap="round" stroke-linejoin="round"/>
<path d="M4.7796 4.89388L20.3609 22.0332" stroke="#334C8F" stroke-width="1.50359" stroke-linecap="round" stroke-linejoin="round"/>
</svg>
