<svg width="79" height="80" viewBox="0 0 79 80" fill="none" xmlns="http://www.w3.org/2000/svg">
<path d="M62.1634 39.8308L59.0904 39.8266L59.0904 39.835L62.1634 39.8308ZM55.4563 56.026L53.2861 53.8503L53.2806 53.8558L55.4563 56.026ZM55.4563 23.6356L53.2842 25.8094L53.2861 25.8113L55.4563 23.6356ZM39.2611 62.7331L39.2653 59.6601L39.2569 59.6601L39.2611 62.7331ZM23.0659 56.026L25.2416 53.8558L25.2397 53.8539L23.0659 56.026ZM45.8046 10.1863H48.8777V4.04018H45.8046V10.1863ZM32.7176 4.04018H29.6446V10.1863H32.7176V4.04018ZM45.8046 75.6214H48.8777V69.4754H45.8046V75.6214ZM32.7176 69.4754H29.6446V75.6214H32.7176V69.4754ZM75.0517 33.2873V30.2143H68.9057V33.2873H75.0517ZM68.9057 46.3743V49.4474H75.0517V46.3743H68.9057ZM9.61656 33.2873V30.2143H3.47048V33.2873H9.61656ZM3.47048 46.3743V49.4474H9.61656V46.3743H3.47048ZM61.0646 8.21201L58.8917 6.03905L54.5457 10.385L56.7187 12.5579L61.0646 8.21201ZM66.534 22.3732L68.7069 24.5462L73.0529 20.2003L70.8799 18.0273L66.534 22.3732ZM21.8035 12.5579L23.9765 10.385L19.6306 6.03905L17.4576 8.21201L21.8035 12.5579ZM7.64231 18.0273L5.46934 20.2003L9.81528 24.5462L11.9882 22.3732L7.64231 18.0273ZM20.7293 25.645C21.9294 26.8451 23.8752 26.8451 25.0753 25.645C26.2754 24.4449 26.2754 22.4991 25.0753 21.2991L20.7293 25.645ZM17.4576 71.4496L19.6306 73.6226L23.9765 69.2766L21.8035 67.1037L17.4576 71.4496ZM11.9882 57.2884L9.81528 55.1154L5.46934 59.4614L7.64231 61.6343L11.9882 57.2884ZM56.7187 67.1037L54.5457 69.2766L58.8917 73.6226L61.0646 71.4496L56.7187 67.1037ZM70.8799 61.6343L73.0529 59.4614L68.7069 55.1154L66.534 57.2884L70.8799 61.6343ZM62.1634 42.9039H71.9787V36.7578H62.1634V42.9039ZM59.0904 39.835C59.094 42.4384 58.583 45.0167 57.5869 47.4219L63.2653 49.7736C64.5713 46.6202 65.2412 43.2397 65.2365 39.8266L59.0904 39.835ZM57.5869 47.4219C56.5908 49.8272 55.1292 52.0118 53.2861 53.8503L57.6266 58.2017C60.0431 55.7913 61.9594 52.927 63.2653 49.7736L57.5869 47.4219ZM65.2365 39.835C65.2412 36.4219 64.5713 33.0415 63.2653 29.888L57.5869 32.2397C58.583 34.6449 59.094 37.2233 59.0904 39.8266L65.2365 39.835ZM63.2653 29.888C61.9594 26.7346 60.0431 23.8704 57.6266 21.4599L53.2861 25.8113C55.1292 27.6498 56.5908 29.8345 57.5869 32.2397L63.2653 29.888ZM36.1881 62.7331V72.5484H42.3341V62.7331H36.1881ZM39.2569 65.8062C42.67 65.8109 46.0505 65.141 49.2039 63.835L46.8522 58.1566C44.447 59.1527 41.8687 59.6637 39.2653 59.6601L39.2569 65.8062ZM49.2039 63.835C52.3573 62.5291 55.2216 60.6128 57.632 58.1963L53.2806 53.8558C51.4421 55.6989 49.2575 57.1605 46.8522 58.1566L49.2039 63.835ZM39.2569 59.6601C36.6536 59.6637 34.0752 59.1527 31.67 58.1566L29.3183 63.835C32.4718 65.141 35.8522 65.8109 39.2653 65.8062L39.2569 59.6601ZM31.67 58.1566C29.2648 57.1605 27.0801 55.6989 25.2416 53.8558L20.8902 58.1963C23.3007 60.6128 26.1649 62.5291 29.3183 63.835L31.67 58.1566ZM19.4318 39.8308C19.4318 34.5718 21.521 29.5281 25.2397 25.8094L20.8938 21.4635C16.0224 26.3348 13.2858 32.9417 13.2858 39.8308H19.4318ZM25.2397 25.8094C28.9584 22.0907 34.0021 20.0015 39.2611 20.0015V13.8555C32.372 13.8555 25.7651 16.5921 20.8938 21.4635L25.2397 25.8094ZM16.3588 36.7578H6.54352V42.9039H16.3588V36.7578ZM13.2858 39.8308C13.2858 47.0034 16.1985 53.5008 20.8921 58.1981L25.2397 53.8539C21.6492 50.2606 19.4318 45.3069 19.4318 39.8308H13.2858ZM42.3341 16.9285V7.11322H36.1881V16.9285H42.3341ZM39.2611 20.0015C44.7372 20.0015 49.6909 22.2189 53.2842 25.8094L57.6284 21.4618C52.9311 16.7682 46.4337 13.8555 39.2611 13.8555V20.0015ZM39.2611 10.1863H45.8046V4.04018H39.2611V10.1863ZM39.2611 4.04018H32.7176V10.1863H39.2611V4.04018ZM39.2611 75.6214H45.8046V69.4754H39.2611V75.6214ZM39.2611 69.4754H32.7176V75.6214H39.2611V69.4754ZM75.0517 39.8308V33.2873H68.9057V39.8308H75.0517ZM68.9057 39.8308V46.3743H75.0517V39.8308H68.9057ZM9.61656 39.8308V33.2873H3.47048V39.8308H9.61656ZM3.47048 39.8308V46.3743H9.61656V39.8308H3.47048ZM65.9723 13.1197L61.0646 8.21201L56.7187 12.5579L61.6263 17.4656L65.9723 13.1197ZM61.6263 17.4656L66.534 22.3732L70.8799 18.0273L65.9723 13.1197L61.6263 17.4656ZM61.6263 13.1197L53.2834 21.4626L57.6293 25.8086L65.9723 17.4656L61.6263 13.1197ZM16.8959 17.4656L21.8035 12.5579L17.4576 8.21201L12.55 13.1197L16.8959 17.4656ZM12.55 13.1197L7.64231 18.0273L11.9882 22.3732L16.8959 17.4656L12.55 13.1197ZM12.55 17.4656L20.7293 25.645L25.0753 21.2991L16.8959 13.1197L12.55 17.4656ZM12.55 66.542L17.4576 71.4496L21.8035 67.1037L16.8959 62.196L12.55 66.542ZM16.8959 62.196L11.9882 57.2884L7.64231 61.6343L12.55 66.542L16.8959 62.196ZM16.8959 66.542L25.2389 58.199L20.8929 53.8531L12.55 62.196L16.8959 66.542ZM61.6263 62.196L56.7187 67.1037L61.0646 71.4496L65.9723 66.542L61.6263 62.196ZM65.9723 66.542L70.8799 61.6343L66.534 57.2884L61.6263 62.196L65.9723 66.542ZM65.9723 62.196L57.6293 53.8531L53.2834 58.199L61.6263 66.542L65.9723 62.196Z" fill="#3685D9"/>
<path d="M34.3535 39.8308C37.0639 39.8308 39.2611 37.6336 39.2611 34.9232C39.2611 32.2128 37.0639 30.0155 34.3535 30.0155C31.6431 30.0155 29.4459 32.2128 29.4459 34.9232C29.4459 37.6336 31.6431 39.8308 34.3535 39.8308Z" stroke="#3CEAF5" stroke-width="6.14608" stroke-linecap="round" stroke-linejoin="round"/>
<path d="M45.2501 49.8125C46.2301 49.8125 47.0246 49.018 47.0246 48.0379C47.0246 47.0579 46.2301 46.2634 45.2501 46.2634C44.2701 46.2634 43.4756 47.0579 43.4756 48.0379C43.4756 49.018 44.2701 49.8125 45.2501 49.8125Z" stroke="#3CEAF5" stroke-width="6.14608" stroke-linecap="round" stroke-linejoin="round"/>
</svg>
